<svg xmlns="http://www.w3.org/2000/svg" viewBox="0 0 64 64" role="img" aria-labelledby="title">
  <title>Air Inter Prométhée</title>
  <rect width="64" height="64" rx="12" fill="#112d48"/>
  <path d="M8 16h48v5H8z" fill="#155cb8"/>
  <path d="M8 24h48v4H8z" fill="#ffffff"/>
  <path d="M8 31h48v5H8z" fill="#d43640"/>
  <path d="M18 13h21c9 0 15 5 15 13 0 9-7 14-17 14H27v11h-9V13zm9 8v11h10c5 0 8-2 8-6 0-3-3-5-8-5H27z" fill="#ffffff"/>
  <circle cx="50" cy="49" r="6" fill="#155cb8"/>
  <path d="M46 49h8" stroke="#fff" stroke-width="2.5" stroke-linecap="round"/>
</svg>
